<svg width="150" height="150" viewBox="0 0 150 150" fill="none" xmlns="http://www.w3.org/2000/svg">
<circle cx="75" cy="75" r="75" fill="#C4C4C4"/>
<path d="M50.7031 82.1133V86H36.4258V82.1133H50.7031ZM37.793 57.5625V86H32.8906V57.5625H37.793ZM53.125 75.668V75.2188C53.125 73.6953 53.3464 72.2826 53.7891 70.9805C54.2318 69.6654 54.8698 68.526 55.7031 67.5625C56.5495 66.5859 57.5781 65.8307 58.7891 65.2969C60.013 64.75 61.3932 64.4766 62.9297 64.4766C64.4792 64.4766 65.8594 64.75 67.0703 65.2969C68.2943 65.8307 69.3294 66.5859 70.1758 67.5625C71.0221 68.526 71.6667 69.6654 72.1094 70.9805C72.5521 72.2826 72.7734 73.6953 72.7734 75.2188V75.668C72.7734 77.1914 72.5521 78.6042 72.1094 79.9062C71.6667 81.2083 71.0221 82.3477 70.1758 83.3242C69.3294 84.2878 68.3008 85.043 67.0898 85.5898C65.8789 86.1237 64.5052 86.3906 62.9688 86.3906C61.4193 86.3906 60.0326 86.1237 58.8086 85.5898C57.5977 85.043 56.569 84.2878 55.7227 83.3242C54.8763 82.3477 54.2318 81.2083 53.7891 79.9062C53.3464 78.6042 53.125 77.1914 53.125 75.668ZM57.832 75.2188V75.668C57.832 76.6185 57.9297 77.5169 58.125 78.3633C58.3203 79.2096 58.6263 79.9518 59.043 80.5898C59.4596 81.2279 59.9935 81.7292 60.6445 82.0938C61.2956 82.4583 62.0703 82.6406 62.9688 82.6406C63.8411 82.6406 64.5964 82.4583 65.2344 82.0938C65.8854 81.7292 66.4193 81.2279 66.8359 80.5898C67.2526 79.9518 67.5586 79.2096 67.7539 78.3633C67.9622 77.5169 68.0664 76.6185 68.0664 75.668V75.2188C68.0664 74.2812 67.9622 73.3958 67.7539 72.5625C67.5586 71.7161 67.2461 70.9674 66.8164 70.3164C66.3997 69.6654 65.8659 69.1576 65.2148 68.793C64.5768 68.4154 63.8151 68.2266 62.9297 68.2266C62.0443 68.2266 61.276 68.4154 60.625 68.793C59.987 69.1576 59.4596 69.6654 59.043 70.3164C58.6263 70.9674 58.3203 71.7161 58.125 72.5625C57.9297 73.3958 57.832 74.2812 57.832 75.2188ZM90.2539 64.8672H94.5312V85.4141C94.5312 87.3151 94.1276 88.9297 93.3203 90.2578C92.513 91.5859 91.3867 92.5951 89.9414 93.2852C88.4961 93.9883 86.8229 94.3398 84.9219 94.3398C84.1146 94.3398 83.2161 94.2227 82.2266 93.9883C81.25 93.7539 80.2995 93.3763 79.375 92.8555C78.4635 92.3477 77.7018 91.6771 77.0898 90.8438L79.2969 88.0703C80.0521 88.9688 80.8854 89.6263 81.7969 90.043C82.7083 90.4596 83.6654 90.668 84.668 90.668C85.7487 90.668 86.6667 90.4661 87.4219 90.0625C88.1901 89.6719 88.7826 89.0924 89.1992 88.3242C89.6159 87.556 89.8242 86.6185 89.8242 85.5117V69.6523L90.2539 64.8672ZM75.8984 75.668V75.2578C75.8984 73.6562 76.0938 72.1979 76.4844 70.8828C76.875 69.5547 77.4349 68.4154 78.1641 67.4648C78.8932 66.5013 79.7786 65.7656 80.8203 65.2578C81.862 64.737 83.0404 64.4766 84.3555 64.4766C85.7227 64.4766 86.888 64.724 87.8516 65.2188C88.8281 65.7135 89.6419 66.4232 90.293 67.3477C90.944 68.2591 91.4518 69.3529 91.8164 70.6289C92.194 71.8919 92.474 73.2982 92.6562 74.8477V76.1562C92.487 77.6667 92.2005 79.0469 91.7969 80.2969C91.3932 81.5469 90.8594 82.6276 90.1953 83.5391C89.5312 84.4505 88.7109 85.1536 87.7344 85.6484C86.7708 86.1432 85.6315 86.3906 84.3164 86.3906C83.0273 86.3906 81.862 86.1237 80.8203 85.5898C79.7917 85.056 78.9062 84.3073 78.1641 83.3438C77.4349 82.3802 76.875 81.2474 76.4844 79.9453C76.0938 78.6302 75.8984 77.2044 75.8984 75.668ZM80.6055 75.2578V75.668C80.6055 76.6315 80.6966 77.5299 80.8789 78.3633C81.0742 79.1966 81.3672 79.9323 81.7578 80.5703C82.1615 81.1953 82.6693 81.6901 83.2812 82.0547C83.9062 82.4062 84.6419 82.582 85.4883 82.582C86.5951 82.582 87.5 82.3477 88.2031 81.8789C88.9193 81.4102 89.4661 80.7786 89.8438 79.9844C90.2344 79.1771 90.5078 78.2786 90.6641 77.2891V73.7539C90.5859 72.9857 90.4232 72.2695 90.1758 71.6055C89.9414 70.9414 89.6224 70.362 89.2188 69.8672C88.8151 69.3594 88.3073 68.9688 87.6953 68.6953C87.0833 68.4089 86.3607 68.2656 85.5273 68.2656C84.681 68.2656 83.9453 68.4479 83.3203 68.8125C82.6953 69.1771 82.181 69.6784 81.7773 70.3164C81.3867 70.9544 81.0938 71.6966 80.8984 72.543C80.7031 73.3893 80.6055 74.2943 80.6055 75.2578ZM98.5156 75.668V75.2188C98.5156 73.6953 98.737 72.2826 99.1797 70.9805C99.6224 69.6654 100.26 68.526 101.094 67.5625C101.94 66.5859 102.969 65.8307 104.18 65.2969C105.404 64.75 106.784 64.4766 108.32 64.4766C109.87 64.4766 111.25 64.75 112.461 65.2969C113.685 65.8307 114.72 66.5859 115.566 67.5625C116.413 68.526 117.057 69.6654 117.5 70.9805C117.943 72.2826 118.164 73.6953 118.164 75.2188V75.668C118.164 77.1914 117.943 78.6042 117.5 79.9062C117.057 81.2083 116.413 82.3477 115.566 83.3242C114.72 84.2878 113.691 85.043 112.48 85.5898C111.27 86.1237 109.896 86.3906 108.359 86.3906C106.81 86.3906 105.423 86.1237 104.199 85.5898C102.988 85.043 101.96 84.2878 101.113 83.3242C100.267 82.3477 99.6224 81.2083 99.1797 79.9062C98.737 78.6042 98.5156 77.1914 98.5156 75.668ZM103.223 75.2188V75.668C103.223 76.6185 103.32 77.5169 103.516 78.3633C103.711 79.2096 104.017 79.9518 104.434 80.5898C104.85 81.2279 105.384 81.7292 106.035 82.0938C106.686 82.4583 107.461 82.6406 108.359 82.6406C109.232 82.6406 109.987 82.4583 110.625 82.0938C111.276 81.7292 111.81 81.2279 112.227 80.5898C112.643 79.9518 112.949 79.2096 113.145 78.3633C113.353 77.5169 113.457 76.6185 113.457 75.668V75.2188C113.457 74.2812 113.353 73.3958 113.145 72.5625C112.949 71.7161 112.637 70.9674 112.207 70.3164C111.79 69.6654 111.257 69.1576 110.605 68.793C109.967 68.4154 109.206 68.2266 108.32 68.2266C107.435 68.2266 106.667 68.4154 106.016 68.793C105.378 69.1576 104.85 69.6654 104.434 70.3164C104.017 70.9674 103.711 71.7161 103.516 72.5625C103.32 73.3958 103.223 74.2812 103.223 75.2188Z" fill="black"/>
</svg>
