<svg width="14" height="12" viewBox="0 0 14 12" fill="none" xmlns="http://www.w3.org/2000/svg">
<g clip-path="url(#clip0_36_44)">
<path fill-rule="evenodd" clip-rule="evenodd" d="M13.973 1.429C13.4513 1.67212 12.895 1.8327 12.324 1.905C12.9314 1.51577 13.3795 0.921946 13.587 0.231C13.033 0.571 12.418 0.821 11.764 0.959C11.503 0.659156 11.181 0.418493 10.8196 0.253109C10.4581 0.0877242 10.0655 0.00143067 9.668 0C8.083 0 6.798 1.356 6.798 3.025C6.798 3.265 6.824 3.495 6.872 3.717C4.487 3.597 2.372 2.389 0.956 0.563C0.707 1.006 0.568 1.523 0.568 2.085C0.568 3.136 1.075 4.061 1.844 4.605C1.38596 4.58913 0.93913 4.45921 0.544 4.227V4.263C0.544 5.73 1.532 6.955 2.846 7.233C2.42606 7.35147 1.98411 7.36929 1.556 7.285C1.924 8.487 2.982 9.362 4.241 9.387C3.65729 9.87471 2.97982 10.2376 2.25039 10.4533C1.52097 10.669 0.755077 10.7329 0 10.641C1.29996 11.5247 2.83512 11.9981 4.407 12C9.689 12 12.575 7.389 12.575 3.396C12.575 3.266 12.575 3.137 12.565 3.008C13.125 2.584 13.615 2.049 14 1.441L13.973 1.429V1.429Z" fill="white"/>
</g>
<defs>
<clipPath id="clip0_36_44">
<rect width="14" height="12" fill="white"/>
</clipPath>
</defs>
</svg>
